HIERARCHY
ROOT Hips
{
	OFFSET -3.958830 18.904000 13.208200
	CHANNELS 6 Xposition Yposition Zposition Zrotation Yrotation Xrotation 
	JOINT LHipJoint
	{
		OFFSET 0.000000 0.000000 0.000000
		CHANNELS 3 Zrotation Yrotation Xrotation
		JOINT LeftUpLeg
		{
			OFFSET 1.800000 -1.400000 0.085000
			CHANNELS 3 Zrotation Yrotation Xrotation
			JOINT LeftLeg
			{
				OFFSET 2.215000 -6.000000 0.000000
				CHANNELS 3 Zrotation Yrotation Xrotation
				JOINT LeftFoot
				{
					OFFSET 2.500000 -6.900000 0.000000
					CHANNELS 3 Zrotation Yrotation Xrotation
					JOINT LeftToeBase
					{
						OFFSET 0.200000 -0.500000 1.950000
						CHANNELS 3 Zrotation Yrotation Xrotation
						End Site
						{
							OFFSET 0.000000 0.000000 0.000000
						}
					}
				}
			}
		}
	}
	JOINT RHipJoint
	{
		OFFSET 0.000000 0.000000 0.000000
		CHANNELS 3 Zrotation Yrotation Xrotation
		JOINT RightUpLeg
		{
			OFFSET -1.800000 -1.400000 0.085000
			CHANNELS 3 Zrotation Yrotation Xrotation
			JOINT RightLeg
			{
				OFFSET -2.215000 -6.000000 0.000000
				CHANNELS 3 Zrotation Yrotation Xrotation
				JOINT RightFoot
				{
					OFFSET -2.500000 -6.900000 0.000000
					CHANNELS 3 Zrotation Yrotation Xrotation
					JOINT RightToeBase
					{
						OFFSET -0.200000 -0.500000 1.950000
						CHANNELS 3 Zrotation Yrotation Xrotation
						End Site
						{
							OFFSET 0.000000 0.000000 0.000000
						}
					}
				}
			}
		}
	}
	JOINT LowerBack
	{
		OFFSET 0.000000 0.000000 0.000000
		CHANNELS 3 Zrotation Yrotation Xrotation
		JOINT Spine
		{
			OFFSET -0.087000 1.940000 -0.288900
			CHANNELS 3 Zrotation Yrotation Xrotation
			JOINT Spine1
			{
				OFFSET 0.000000 1.950000 0.060000
				CHANNELS 3 Zrotation Yrotation Xrotation
				JOINT Neck
				{
					OFFSET 0.000000 0.000000 0.000000
					CHANNELS 3 Zrotation Yrotation Xrotation
					JOINT Neck1
					{
						OFFSET 0.000000 1.600000 0.340000
						CHANNELS 3 Zrotation Yrotation Xrotation
						JOINT Head
						{
							OFFSET 0.000000 1.667000 -0.240000
							CHANNELS 3 Zrotation Yrotation Xrotation
							End Site
							{
								OFFSET 0.000000 0.000000 0.000000
							}
						}
					}
				}
				JOINT LeftShoulder
				{
					OFFSET 0.000000 0.000000 0.000000
					CHANNELS 3 Zrotation Yrotation Xrotation
					JOINT LeftArm
					{
						OFFSET 2.700000 1.550000 -0.730000
						CHANNELS 3 Zrotation Yrotation Xrotation
						JOINT LeftForeArm
						{
							OFFSET 5.450000 0.000000 0.000000
							CHANNELS 3 Zrotation Yrotation Xrotation
							JOINT LeftHand
							{
								OFFSET 3.450000 0.000000 0.000000
								CHANNELS 3 Zrotation Yrotation Xrotation
								JOINT LeftHandIndex1
								{
									OFFSET 0.750000 0.000000 0.000000
									CHANNELS 3 Zrotation Yrotation Xrotation
									End Site
									{
										OFFSET 0.000000 0.000000 0.000000
									}
								}
							}
						}
					}
				}
				JOINT RightShoulder
				{
					OFFSET 0.000000 0.000000 0.000000
					CHANNELS 3 Zrotation Yrotation Xrotation
					JOINT RightArm
					{
						OFFSET -2.700000 1.550000 -0.730000
						CHANNELS 3 Zrotation Yrotation Xrotation
						JOINT RightForeArm
						{
							OFFSET -5.450000 0.000000 0.000000
							CHANNELS 3 Zrotation Yrotation Xrotation
							JOINT RightHand
							{
								OFFSET -3.450000 0.000000 0.000000
								CHANNELS 3 Zrotation Yrotation Xrotation
								JOINT RightHandIndex1
								{
									OFFSET -0.750000 0.000000 0.000000
									CHANNELS 3 Zrotation Yrotation Xrotation
									End Site
									{
										OFFSET 0.000000 0.000000 0.000000
									}
								}
							}
						}
					}
				}
			}
		}
	}
}
MOTION
Frames: 4
Frame Time: 0.016667
0.595750 17.194470 -1.724910 -7.532464 23.529452 5.256375 -15.255143 12.312984 2.423159 5.375096 -3.030167 -19.203495 -7.055807 5.287247 12.674756 -1.331622 4.629852 3.532567 0.528210 0.036020 0.070740 18.434799 -9.702821 3.671494 -7.437409 5.334097 -35.465225 6.507190 -1.354559 -1.059367 0.529773 -2.495084 3.905641 0.636490 1.247830 0.144700 -3.930774 -1.087070 -6.974555 9.302103 -0.170192 2.067954 1.513530 -0.883937 10.447623 0.144050 1.200213 -4.412450 2.279173 -8.391036 19.220257 -4.697410 -10.327550 2.300200 -17.807099 -5.062577 0.160805 0.980059 0.606974 2.268930 -14.755603 -68.913959 9.240405 -4.559800 3.502566 -0.021270 0.966950 -1.015330 0.499270 17.849546 3.462664 1.832635 -1.316365 -1.428243 0.740186 37.765059 75.300014 24.358951 1.319751 -2.483719 -0.695810 0.735310 0.151150 -0.218120 
0.597660 17.196340 -1.727410 -6.583154 25.235576 5.279443 -15.283915 12.396465 2.543338 4.747384 -3.371078 -20.475740 -7.173582 5.598540 14.738004 -1.306513 4.706713 3.469702 0.553230 0.063880 0.079020 18.384056 -9.804929 3.521859 -8.920554 4.639726 -35.167194 6.216033 -1.820030 1.691024 0.507322 -2.522324 3.873802 0.631950 1.204800 0.147100 -3.856742 -1.216905 -6.945294 8.585599 -0.520459 2.447386 1.325952 -1.081777 10.636746 0.168392 1.048981 -4.459058 1.886341 -8.685316 19.748754 -4.299860 -10.868220 1.581670 -17.165886 -4.591038 0.148477 -1.247478 -0.112711 1.903556 -15.270763 -72.167915 9.959105 -4.501202 3.498957 0.009000 0.923370 -0.978080 0.501670 17.168015 3.131722 1.844910 -0.688791 -1.596314 0.636327 38.888348 74.496395 24.754979 1.330151 -2.467959 -0.669280 0.721780 0.139710 -0.215120 
0.591130 17.199680 -1.745420 -4.963436 27.869785 5.417775 -15.334976 12.454946 2.852916 4.052986 -4.321270 -23.428700 -7.676200 6.412834 19.250074 -1.170593 4.982491 3.282901 0.583880 0.096690 0.101560 18.300989 -9.967220 3.270934 -11.121973 3.642039 -34.753342 5.854282 -2.727471 6.831758 0.451940 -2.620728 3.804048 0.581540 1.073170 0.137750 -3.730049 -1.374296 -6.998489 7.267817 -0.778905 3.807944 0.913860 -1.034608 10.762819 0.396190 1.090446 -4.907003 1.630024 -9.150467 21.027354 -3.160510 -11.502720 0.526960 -16.281531 -4.517112 0.370926 -4.472881 -1.323388 1.226549 -17.558364 -77.512724 12.353656 -4.348672 3.522637 0.070820 0.807400 -0.889480 0.489230 15.827603 3.153996 2.295124 0.429959 -2.551411 0.249122 40.590006 72.130565 24.763194 1.393143 -2.430793 -0.595580 0.649240 0.100920 -0.215860 
0.573380 17.194930 -1.786950 -3.524551 29.491538 5.795973 -15.379317 12.244040 3.402838 4.371373 -6.084655 -28.421269 -8.855788 8.027884 26.214409 -0.979139 5.921162 2.859971 0.568000 0.078410 0.098950 18.264942 -10.026532 3.017583 -13.027373 2.979291 -34.271246 5.958540 -3.799550 11.916968 0.389602 -2.886507 3.684281 0.526310 0.987780 0.117810 -3.642874 -1.357817 -7.223305 6.576232 -0.594920 6.050375 0.009910 -0.369976 10.332043 0.749444 0.863977 -5.318947 1.153982 -9.962198 21.719656 -2.371840 -12.293050 -0.766420 -15.719288 -4.051924 0.320187 -8.410442 -3.057611 0.801418 -20.915259 -83.752350 16.141338 -4.244104 3.487898 0.152760 0.717780 -0.819320 0.467470 14.453543 3.111297 2.924049 1.523057 -3.882482 -0.055069 43.603801 70.106634 25.608786 1.445346 -2.344381 -0.575230 0.630350 0.101440 -0.226220 
